<svg width="16" height="16" viewBox="0 0 16 16" fill="none" xmlns="http://www.w3.org/2000/svg">
    <path fill-rule="evenodd" clip-rule="evenodd" d="M3 14C2.44772 14 2 13.5523 2 13V3C2 2.44772 2.44772 2 3 2H13C13.5523 2 14 2.44772 14 3V13C14 13.5523 13.5523 14 13 14H9.89433V9.71069H11.6635L11.9285 7.84366H9.89433V6.65191C9.89433 6.11181 10.0597 5.74366 10.9125 5.74366L12 5.743V4.0735C11.8115 4.05053 11.166 4 10.415 4C8.84727 4 7.7735 4.86953 7.7735 6.4675V7.84366H6V9.71069H7.7735V14H3Z" fill="#3B5998"/>
</svg>
