<svg width="14" height="14" viewBox="0 0 14 14" fill="none" xmlns="http://www.w3.org/2000/svg">
    <path d="M13.72 7.15553C13.72 6.57998 13.6733 6.15998 13.5722 5.72443H7V8.32217H10.8577C10.78 8.96775 10.36 9.93998 9.42665 10.5933L9.41357 10.6802L11.4916 12.2901L11.6355 12.3044C12.9577 11.0833 13.72 9.28663 13.72 7.15553Z" fill="#4285F4"/>
    <path d="M6.99993 14C8.8899 14 10.4766 13.3778 11.6355 12.3045L9.42658 10.5933C8.83548 11.0055 8.04213 11.2933 6.99993 11.2933C5.14883 11.2933 3.57773 10.0722 3.01768 8.38446L2.93559 8.39143L0.774839 10.0637L0.746582 10.1422C1.89768 12.4289 4.26213 14 6.99993 14Z" fill="#34A853"/>
    <path d="M3.01775 8.38448C2.86997 7.94893 2.78445 7.48223 2.78445 7.00003C2.78445 6.51778 2.86997 6.05113 3.00997 5.61558L3.00606 5.52282L0.818231 3.82373L0.746649 3.85778C0.272225 4.80668 0 5.87226 0 7.00003C0 8.12781 0.272225 9.19333 0.746649 10.1422L3.01775 8.38448Z" fill="#FBBC05"/>
    <path d="M6.99993 2.70665C8.31436 2.70665 9.201 3.27442 9.70658 3.7489L11.6821 1.82C10.4688 0.692225 8.88991 0 6.99993 0C4.26213 0 1.89768 1.5711 0.746582 3.85775L3.00991 5.61555C3.57773 3.92778 5.14883 2.70665 6.99993 2.70665Z" fill="#EB4335"/>
</svg>
