<svg width="127" height="42" viewBox="0 0 127 42" fill="none" xmlns="http://www.w3.org/2000/svg">
    <g clip-path="url(#clip0)">
        <path fill-rule="evenodd" clip-rule="evenodd" d="M77.8488 0V8.79886C78.999 7.35771 80.7673 6.56971 82.879 6.56971C87.3882 6.56971 90.538 10.2291 90.538 15.4686C90.538 20.7457 87.3882 24.4314 82.879 24.4314C80.7792 24.4314 79.0098 23.6326 77.8488 22.1714V24.0497H73.538V0H77.8488ZM86.7002 42H79.3758C78.3606 42 77.538 41.1775 77.538 40.1614V32.8386C77.538 31.8234 78.3606 31 79.3758 31H86.7002C87.7145 31 88.538 31.8234 88.538 32.8386V40.1614C88.538 41.1775 87.7145 42 86.7002 42ZM0 37.291C0 35.674 0.966 34.4245 2.5935 34.4245C4.1265 34.4245 5.0925 35.527 5.0925 37.0075C5.0925 37.1755 5.082 37.3225 5.0715 37.4275H0.9345C0.945 38.6035 1.6905 39.307 2.7195 39.307C3.3285 39.307 3.885 39.0655 4.2735 38.572L4.872 39.118C4.3575 39.7375 3.6225 40.126 2.667 40.126C0.9765 40.126 0 38.908 0 37.291ZM0.9555 36.7345H4.179C4.116 35.674 3.402 35.191 2.583 35.191C1.6485 35.191 1.029 35.8315 0.9555 36.7345ZM11.6655 34.3615L12.411 33.8365C11.7705 32.902 10.794 32.3665 9.5655 32.3665C7.4235 32.3665 6.0165 34.0045 6.0165 36.2515C6.0165 38.5195 7.434 40.1365 9.6075 40.1365C10.836 40.1365 11.7705 39.622 12.453 38.656L11.697 38.131C11.1825 38.8555 10.5315 39.2545 9.6075 39.2545C8.0115 39.2545 7.014 38.0575 7.014 36.2515C7.014 34.456 7.9905 33.2485 9.5655 33.2485C10.479 33.2485 11.2035 33.658 11.6655 34.3615ZM15.855 40.126C17.4615 40.126 18.4695 38.908 18.4695 37.2805C18.4695 35.632 17.4615 34.4245 15.855 34.4245C14.259 34.4245 13.2615 35.632 13.2615 37.2805C13.2615 38.908 14.259 40.126 15.855 40.126ZM15.855 35.2225C16.9155 35.2225 17.5245 36.115 17.5245 37.2805C17.5245 38.425 16.9155 39.328 15.855 39.328C14.805 39.328 14.196 38.425 14.196 37.2805C14.196 36.115 14.805 35.2225 15.855 35.2225ZM23.2155 40H24.0975V36.892C24.0975 35.9155 24.7275 35.2435 25.5675 35.2435C26.4495 35.2435 26.6805 35.8945 26.6805 36.619V40H27.5625V36.409C27.5625 35.149 26.859 34.4245 25.767 34.4245C24.948 34.4245 24.276 34.897 23.9085 35.464C23.6565 34.792 23.079 34.4245 22.323 34.4245C21.588 34.4245 20.9895 34.7815 20.622 35.338V34.5505H19.74V40H20.622V36.892C20.622 35.9155 21.252 35.2435 22.1025 35.2435C22.974 35.2435 23.2155 35.8945 23.2155 36.619V40ZM32.6025 40H33.4845V36.892C33.4845 35.9155 34.1145 35.2435 34.9545 35.2435C35.8365 35.2435 36.0675 35.8945 36.0675 36.619V40H36.9495V36.409C36.9495 35.149 36.246 34.4245 35.154 34.4245C34.335 34.4245 33.663 34.897 33.2955 35.464C33.0435 34.792 32.466 34.4245 31.71 34.4245C30.975 34.4245 30.3765 34.7815 30.009 35.338V34.5505H29.127V40H30.009V36.892C30.009 35.9155 30.639 35.2435 31.4895 35.2435C32.361 35.2435 32.6025 35.8945 32.6025 36.619V40ZM40.761 34.4245C39.1335 34.4245 38.1675 35.674 38.1675 37.291C38.1675 38.908 39.144 40.126 40.8345 40.126C41.79 40.126 42.525 39.7375 43.0395 39.118L42.441 38.572C42.0525 39.0655 41.496 39.307 40.887 39.307C39.858 39.307 39.1125 38.6035 39.102 37.4275H43.239C43.2495 37.3225 43.26 37.1755 43.26 37.0075C43.26 35.527 42.294 34.4245 40.761 34.4245ZM42.3465 36.7345H39.123C39.1965 35.8315 39.816 35.191 40.7505 35.191C41.5695 35.191 42.2835 35.674 42.3465 36.7345ZM47.7015 34.6345L47.4915 35.443C47.334 35.3485 47.0715 35.296 46.8405 35.296C46.0635 35.296 45.381 35.926 45.381 37.1965V40H44.499V34.5505H45.381V35.3485C45.6855 34.8235 46.2945 34.4455 46.9665 34.4455C47.292 34.4455 47.565 34.54 47.7015 34.6345ZM52.9305 35.548L52.269 36.01C51.954 35.527 51.4605 35.233 50.841 35.233C49.77 35.233 49.1085 36.0835 49.1085 37.27C49.1085 38.467 49.77 39.307 50.841 39.307C51.5025 39.307 51.9855 38.992 52.3005 38.53L52.9515 39.0235C52.4895 39.6745 51.7545 40.126 50.7885 40.126C49.1925 40.126 48.174 38.8975 48.174 37.27C48.174 35.653 49.203 34.4245 50.7885 34.4245C51.765 34.4245 52.4895 34.8865 52.9305 35.548ZM53.7495 37.291C53.7495 35.674 54.7155 34.4245 56.343 34.4245C57.876 34.4245 58.842 35.527 58.842 37.0075C58.842 37.1755 58.8315 37.3225 58.821 37.4275H54.684C54.6945 38.6035 55.44 39.307 56.469 39.307C57.078 39.307 57.6345 39.0655 58.023 38.572L58.6215 39.118C58.107 39.7375 57.372 40.126 56.4165 40.126C54.726 40.126 53.7495 38.908 53.7495 37.291ZM54.705 36.7345H57.9285C57.8655 35.674 57.1515 35.191 56.3325 35.191C55.398 35.191 54.7785 35.8315 54.705 36.7345ZM63.798 32.503H62.916V40H63.798V39.1495C64.239 39.8215 64.932 40.126 65.6565 40.126C67.158 40.126 68.124 38.887 68.124 37.27C68.124 35.653 67.1685 34.4245 65.6565 34.4245C64.9425 34.4245 64.239 34.7185 63.798 35.401V32.503ZM65.52 39.307C64.407 39.307 63.798 38.4145 63.798 37.2805C63.798 36.157 64.3965 35.233 65.52 35.233C66.6435 35.233 67.1895 36.157 67.1895 37.2805C67.1895 38.4145 66.633 39.307 65.52 39.307ZM69.447 41.0815L69.2475 41.8165C69.3525 41.869 69.5835 41.932 69.8985 41.932C70.7175 41.932 71.106 41.449 71.6205 40.1365L73.8255 34.5505H72.8595L71.2635 38.8765L69.657 34.5505H68.6595L70.8015 39.979C70.4445 40.903 70.203 41.1655 69.7935 41.1655C69.678 41.1655 69.552 41.134 69.447 41.0815ZM79.5378 33.5806C79.5378 33.2594 79.7967 32.9997 80.1169 32.9997H85.9563C86.2774 32.9997 86.5372 33.2594 86.5372 33.5806V39.4194C86.5372 39.7396 86.2774 39.9994 85.9563 39.9994H80.1169C79.7967 39.9994 79.5378 39.7396 79.5378 39.4194V33.5806ZM81.8713 35.0003H84.2047C84.3888 35.0003 84.5384 35.1498 84.5384 35.3358V37.6661C84.5384 37.8512 84.3888 38.0007 84.2047 38.0007H81.8713C81.6862 38.0007 81.5386 37.8512 81.5386 37.6661V35.3358C81.5386 35.1498 81.6862 35.0003 81.8713 35.0003ZM94.646 33.2275C93.785 33.2275 93.071 33.637 93.071 34.3825C93.071 34.8865 93.4175 35.17 93.953 35.3695C94.1995 35.4641 94.4972 35.544 94.8138 35.629L94.8139 35.629L94.8142 35.629L94.8142 35.6291C96.008 35.9493 97.4705 36.3416 97.4705 37.8685C97.4705 39.1705 96.431 40.1365 94.7405 40.1365C93.491 40.1365 92.462 39.601 91.895 38.7085L92.6615 38.173C93.176 39.0025 94.0475 39.2755 94.793 39.2755C95.843 39.2755 96.515 38.7505 96.515 37.942C96.515 37.0915 95.7695 36.871 94.6985 36.598C93.47 36.3145 92.1155 35.9155 92.1155 34.4455C92.1155 33.0805 93.3125 32.3665 94.688 32.3665C95.759 32.3665 96.6935 32.797 97.3025 33.6055L96.578 34.141C96.137 33.574 95.4545 33.2275 94.646 33.2275ZM102.941 41.827H103.823V34.5505H102.941V35.401C102.489 34.729 101.807 34.4245 101.072 34.4245C99.5705 34.4245 98.615 35.6635 98.615 37.2805C98.615 38.8975 99.56 40.126 101.072 40.126C101.797 40.126 102.489 39.832 102.941 39.1495V41.827ZM102.941 37.27C102.941 36.136 102.332 35.233 101.208 35.233C100.106 35.233 99.5495 36.136 99.5495 37.27C99.5495 38.3935 100.095 39.307 101.208 39.307C102.342 39.307 102.941 38.3935 102.941 37.27ZM110.144 34.5505H109.262V37.585C109.262 38.614 108.569 39.2965 107.645 39.2965C106.7 39.2965 106.469 38.6245 106.469 37.8685V34.5505H105.576V38.0785C105.576 39.37 106.312 40.126 107.446 40.126C108.243 40.126 108.884 39.748 109.262 39.181V40H110.144V34.5505ZM116.035 40H115.174V39.328C114.785 39.874 114.218 40.126 113.493 40.126C112.349 40.126 111.604 39.5065 111.604 38.467C111.604 37.1755 112.727 36.9445 113.431 36.829C113.505 36.8175 113.58 36.8066 113.656 36.7956C114.406 36.6864 115.153 36.5779 115.153 35.9575C115.153 35.3905 114.533 35.212 113.977 35.212C113.431 35.212 112.738 35.3905 112.255 35.779L111.855 35.107C112.412 34.6975 113.2 34.4245 114.029 34.4245C115.215 34.4245 116.035 34.96 116.035 36.0835V40ZM115.152 37.0495V37.858C115.152 38.9185 114.407 39.349 113.63 39.349C113.021 39.349 112.507 39.0865 112.507 38.4145C112.507 37.774 112.979 37.6165 113.609 37.501L113.682 37.4885L113.759 37.4754C114.265 37.3897 114.809 37.2977 115.152 37.0495ZM121.022 34.6345L120.812 35.443C120.655 35.3485 120.392 35.296 120.161 35.296C119.384 35.296 118.702 35.926 118.702 37.1965V40H117.82V34.5505H118.702V35.3485C119.006 34.8235 119.615 34.4455 120.287 34.4455C120.613 34.4455 120.886 34.54 121.022 34.6345ZM124.298 34.4245C122.671 34.4245 121.704 35.674 121.704 37.291C121.704 38.908 122.681 40.126 124.371 40.126C125.327 40.126 126.062 39.7375 126.576 39.118L125.978 38.572C125.59 39.0655 125.033 39.307 124.424 39.307C123.395 39.307 122.649 38.6035 122.639 37.4275H126.776C126.786 37.3225 126.797 37.1755 126.797 37.0075C126.797 35.527 125.831 34.4245 124.298 34.4245ZM122.66 36.7345H125.884C125.821 35.674 125.107 35.191 124.288 35.191C123.353 35.191 122.734 35.8315 122.66 36.7345ZM81.9909 20.612C79.4744 20.612 77.8488 18.6177 77.8488 15.5326C77.8488 12.9731 79.1299 10.3897 81.9909 10.3897C84.9743 10.3897 86.0372 13.0463 86.0372 15.5326C86.0372 17.988 84.9743 20.612 81.9909 20.612ZM95.9066 24.0503H91.538V0H95.9066V24.0503ZM54.6615 14.9864C54.6615 9.96873 51.3609 6.5973 46.4489 6.5973C41.3449 6.5973 37.9152 10.2116 37.9152 15.5916C37.9152 20.9784 41.3661 24.4584 46.7066 24.4584C49.7552 24.4584 52.226 23.3596 54.0489 21.1922L54.1358 21.0887L51.3203 18.4367L51.2238 18.5579C50.1706 19.8784 48.6861 20.5756 46.9312 20.5756C44.3232 20.5756 42.6672 19.067 42.5769 16.6259H54.6592L54.6615 14.9864ZM46.6323 10.4162C44.6323 10.4162 43.146 11.5527 42.7158 13.3967H50.462C50.0689 11.527 48.6489 10.4162 46.6323 10.4162ZM72.277 14.9864C72.277 9.96873 68.9764 6.5973 64.0644 6.5973C58.9604 6.5973 55.5307 10.2116 55.5307 15.5916C55.5307 20.9784 58.9815 24.4584 64.3221 24.4584C67.3707 24.4584 69.8415 23.3596 71.6644 21.1922L71.7513 21.0887L68.9358 18.4367L68.8392 18.5579C67.7861 19.8784 66.3015 20.5756 64.5467 20.5756C61.9387 20.5756 60.2827 19.067 60.1924 16.6259H72.2747L72.277 14.9864ZM64.2478 10.4162C62.2478 10.4162 60.7615 11.5527 60.3312 13.3967H68.0775C67.6844 11.527 66.2644 10.4162 64.2478 10.4162ZM33.5419 6.97821L30.9722 17.8634L27.8151 6.97821H23.0088L19.8511 17.8668L17.2494 6.97821H12.5774L17.1922 23.9714L17.2208 24.0771H22.2008L25.4036 13.0828L28.5442 24.0771H33.5071L38.1825 6.97821H33.5419ZM105.887 18.3943L109.838 7H114.518L105.362 30.9891H101.172L103.771 24.0514L96.9978 7H101.907L105.887 18.3943Z" fill="#323B43"/>
    </g>
    <defs>
        <clipPath id="clip0">
            <rect width="126.797" height="42" fill="white"/>
        </clipPath>
    </defs>
</svg>
