<svg width="16" height="16" viewBox="0 0 16 16" fill="none" xmlns="http://www.w3.org/2000/svg">
    <path fill-rule="evenodd" clip-rule="evenodd" d="M0 2.4C0 2.0284 0 1.8426 0.0246233 1.68713C0.160166 0.831346 0.831346 0.160166 1.68713 0.0246233C1.8426 0 2.0284 0 2.4 0H13.6C13.9716 0 14.1574 0 14.3129 0.0246233C15.1687 0.160166 15.8398 0.831346 15.9754 1.68713C16 1.8426 16 2.0284 16 2.4V13.6C16 13.9716 16 14.1574 15.9754 14.3129C15.8398 15.1687 15.1687 15.8398 14.3129 15.9754C14.1574 16 13.9716 16 13.6 16H2.4C2.0284 16 1.8426 16 1.68713 15.9754C0.831346 15.8398 0.160166 15.1687 0.0246233 14.3129C0 14.1574 0 13.9716 0 13.6V2.4ZM3.2 4.33684C3.2 3.70898 3.70898 3.2 4.33684 3.2H11.6632C12.291 3.2 12.8 3.70898 12.8 4.33684V11.6632C12.8 12.291 12.291 12.8 11.6632 12.8H4.33684C3.70898 12.8 3.2 12.291 3.2 11.6632V4.33684ZM6.02447 6.34549C6 6.42081 6 6.51387 6 6.7V9.3C6 9.48613 6 9.57919 6.02447 9.65451C6.07393 9.80673 6.19327 9.92607 6.34549 9.97553C6.42081 10 6.51387 10 6.7 10H9.3C9.48613 10 9.57919 10 9.65451 9.97553C9.80673 9.92607 9.92607 9.80673 9.97553 9.65451C10 9.57919 10 9.48613 10 9.3V6.7C10 6.51387 10 6.42081 9.97553 6.34549C9.92607 6.19327 9.80673 6.07393 9.65451 6.02447C9.57919 6 9.48613 6 9.3 6H6.7C6.51387 6 6.42081 6 6.34549 6.02447C6.19327 6.07393 6.07393 6.19327 6.02447 6.34549Z" fill="black"/>
</svg>
